<svg width="22" height="22" viewBox="0 0 22 22" fill="none" xmlns="http://www.w3.org/2000/svg">
<path d="M14.7501 19.3006H6.40835C5.86311 19.3006 5.5905 19.3006 5.46426 19.1928C5.35473 19.0993 5.2966 18.9589 5.3079 18.8153C5.32093 18.6498 5.5137 18.457 5.89924 18.0715L13.5519 10.4188C13.9083 10.0624 14.0865 9.88416 14.292 9.81747C14.4727 9.7587 14.6675 9.7587 14.8482 9.81747C15.0537 9.88416 15.232 10.0624 15.5884 10.4188L19.0701 13.9006V14.9806M14.7501 19.3006C16.2623 19.3006 17.0183 19.3006 17.5959 19.0063C18.104 18.7474 18.517 18.3344 18.7758 17.8264C19.0701 17.2488 19.0701 16.4928 19.0701 14.9806M14.7501 19.3006H7.19012C5.67797 19.3006 4.9219 19.3006 4.34434 19.0063C3.8363 18.7474 3.42326 18.3344 3.1644 17.8264C2.87012 17.2488 2.87012 16.4928 2.87012 14.9806V7.42059C2.87012 5.90844 2.87012 5.15237 3.1644 4.57481C3.42326 4.06677 3.8363 3.65373 4.34434 3.39487C4.9219 3.10059 5.67797 3.10059 7.19012 3.10059H14.7501C16.2623 3.10059 17.0183 3.10059 17.5959 3.39487C18.104 3.65373 18.517 4.06677 18.7758 4.57481C19.0701 5.15237 19.0701 5.90844 19.0701 7.42059V14.9806M9.62012 8.05059C9.62012 9.0447 8.81423 9.85059 7.82012 9.85059C6.826 9.85059 6.02012 9.0447 6.02012 8.05059C6.02012 7.05647 6.826 6.25059 7.82012 6.25059C8.81423 6.25059 9.62012 7.05647 9.62012 8.05059Z" stroke="black" stroke-width="1.8" stroke-linecap="round" stroke-linejoin="round"/>
</svg>
