<svg width="22" height="22" viewBox="0 0 22 22" fill="none" xmlns="http://www.w3.org/2000/svg">
<g clip-path="url(#clip0_24782_3592)">
<path d="M20.0807 11.2005H8.20074M20.0807 5.26051H8.20074M20.0807 17.1405H8.20074M4.24074 11.2005C4.24074 11.7473 3.7975 12.1905 3.25074 12.1905C2.70398 12.1905 2.26074 11.7473 2.26074 11.2005C2.26074 10.6537 2.70398 10.2105 3.25074 10.2105C3.7975 10.2105 4.24074 10.6537 4.24074 11.2005ZM4.24074 5.26051C4.24074 5.80726 3.7975 6.25051 3.25074 6.25051C2.70398 6.25051 2.26074 5.80726 2.26074 5.26051C2.26074 4.71375 2.70398 4.27051 3.25074 4.27051C3.7975 4.27051 4.24074 4.71375 4.24074 5.26051ZM4.24074 17.1405C4.24074 17.6873 3.7975 18.1305 3.25074 18.1305C2.70398 18.1305 2.26074 17.6873 2.26074 17.1405C2.26074 16.5937 2.70398 16.1505 3.25074 16.1505C3.7975 16.1505 4.24074 16.5937 4.24074 17.1405Z" stroke="black" stroke-width="2" stroke-linecap="round" stroke-linejoin="round"/>
</g>
<defs>
<clipPath id="clip0_24782_3592">
<rect width="21.6" height="21.6" fill="white" transform="translate(0.371094 0.400391)"/>
</clipPath>
</defs>
</svg>
