<svg viewBox="0 0 24 24" fill="none" xmlns="http://www.w3.org/2000/svg">
<path d="M12.0805 7.66978C11.8896 7.66978 11.7271 7.60263 11.5928 7.46833C11.4585 7.33403 11.3913 7.16969 11.3913 6.97531C11.3913 6.78446 11.4585 6.62188 11.5928 6.48758C11.7271 6.35328 11.8896 6.28613 12.0805 6.28613C12.2749 6.28613 12.4392 6.35328 12.5735 6.48758C12.7078 6.62188 12.775 6.78446 12.775 6.97531C12.775 7.16969 12.7078 7.33403 12.5735 7.46833C12.4392 7.60263 12.2749 7.66978 12.0805 7.66978ZM13.655 7.91895C13.4641 7.91895 13.2998 7.85179 13.162 7.71749C13.0277 7.58319 12.9605 7.42062 12.9605 7.22977C12.9605 7.03539 13.0277 6.87105 13.162 6.73675C13.2998 6.60245 13.4641 6.5353 13.655 6.5353C13.8458 6.5353 14.0084 6.60245 14.1427 6.73675C14.2806 6.87105 14.3495 7.03539 14.3495 7.22977C14.3495 7.42062 14.2806 7.58319 14.1427 7.71749C14.0084 7.85179 13.8458 7.91895 13.655 7.91895ZM15.0705 8.64523C14.8796 8.64523 14.717 8.57808 14.5827 8.44378C14.4484 8.30594 14.3813 8.1416 14.3813 7.95075C14.3813 7.75991 14.4484 7.59733 14.5827 7.46303C14.717 7.3252 14.8796 7.25628 15.0705 7.25628C15.2648 7.25628 15.4292 7.3252 15.5635 7.46303C15.6978 7.59733 15.7649 7.75991 15.7649 7.95075C15.7649 8.1416 15.6978 8.30594 15.5635 8.44378C15.4292 8.57808 15.2648 8.64523 15.0705 8.64523ZM16.1996 9.76911C16.0088 9.76911 15.8444 9.70196 15.7066 9.56766C15.5723 9.43336 15.5052 9.26902 15.5052 9.07464C15.5052 8.88379 15.5723 8.72121 15.7066 8.58691C15.8444 8.45261 16.0088 8.38546 16.1996 8.38546C16.3905 8.38546 16.5531 8.45261 16.6874 8.58691C16.8252 8.72121 16.8941 8.88379 16.8941 9.07464C16.8941 9.26902 16.8252 9.43336 16.6874 9.56766C16.5531 9.70196 16.3905 9.76911 16.1996 9.76911ZM16.9153 11.174C16.7245 11.174 16.5601 11.1068 16.4223 10.9725C16.288 10.8347 16.2208 10.6703 16.2208 10.4795C16.2208 10.2886 16.288 10.1261 16.4223 9.99177C16.5601 9.85393 16.7245 9.78502 16.9153 9.78502C17.1062 9.78502 17.2687 9.85393 17.403 9.99177C17.5409 10.1261 17.6098 10.2886 17.6098 10.4795C17.6098 10.6703 17.5409 10.8347 17.403 10.9725C17.2687 11.1068 17.1062 11.174 16.9153 11.174ZM17.1857 12.7485C16.9948 12.7485 16.8305 12.6813 16.6927 12.547C16.5584 12.4092 16.4912 12.2448 16.4912 12.054C16.4912 11.8631 16.5584 11.7006 16.6927 11.5663C16.8305 11.4284 16.9948 11.3595 17.1857 11.3595C17.3765 11.3595 17.5391 11.4284 17.6734 11.5663C17.8112 11.7006 17.8802 11.8631 17.8802 12.054C17.8802 12.2448 17.8112 12.4092 17.6734 12.547C17.5391 12.6813 17.3765 12.7485 17.1857 12.7485ZM16.9153 14.3177C16.7245 14.3177 16.5601 14.2505 16.4223 14.1162C16.288 13.9819 16.2208 13.8193 16.2208 13.6285C16.2208 13.4341 16.288 13.2698 16.4223 13.1355C16.5601 13.0012 16.7245 12.934 16.9153 12.934C17.1062 12.934 17.2687 13.0012 17.403 13.1355C17.5409 13.2698 17.6098 13.4341 17.6098 13.6285C17.6098 13.8193 17.5409 13.9819 17.403 14.1162C17.2687 14.2505 17.1062 14.3177 16.9153 14.3177ZM16.1996 15.7225C16.0088 15.7225 15.8444 15.6554 15.7066 15.5211C15.5723 15.3868 15.5052 15.2224 15.5052 15.028C15.5052 14.8372 15.5723 14.6746 15.7066 14.5403C15.8444 14.406 16.0088 14.3389 16.1996 14.3389C16.3905 14.3389 16.5531 14.406 16.6874 14.5403C16.8252 14.6746 16.8941 14.8372 16.8941 15.028C16.8941 15.2224 16.8252 15.3868 16.6874 15.5211C16.5531 15.6554 16.3905 15.7225 16.1996 15.7225ZM15.0705 16.8517C14.8796 16.8517 14.717 16.7828 14.5827 16.6449C14.4484 16.5106 14.3813 16.3481 14.3813 16.1572C14.3813 15.9664 14.4484 15.8038 14.5827 15.6695C14.717 15.5317 14.8796 15.4628 15.0705 15.4628C15.2648 15.4628 15.4292 15.5317 15.5635 15.6695C15.6978 15.8038 15.7649 15.9664 15.7649 16.1572C15.7649 16.3481 15.6978 16.5106 15.5635 16.6449C15.4292 16.7828 15.2648 16.8517 15.0705 16.8517ZM13.655 17.5727C13.4641 17.5727 13.2998 17.5038 13.162 17.3659C13.0277 17.2316 12.9605 17.0691 12.9605 16.8782C12.9605 16.6874 13.0277 16.523 13.162 16.3852C13.2998 16.2509 13.4641 16.1837 13.655 16.1837C13.8458 16.1837 14.0084 16.2509 14.1427 16.3852C14.2806 16.523 14.3495 16.6874 14.3495 16.8782C14.3495 17.0691 14.2806 17.2316 14.1427 17.3659C14.0084 17.5038 13.8458 17.5727 13.655 17.5727ZM12.0805 17.8218C11.8896 17.8218 11.7271 17.7529 11.5928 17.6151C11.4585 17.4808 11.3913 17.3182 11.3913 17.1274C11.3913 16.9365 11.4585 16.7739 11.5928 16.6396C11.7271 16.5053 11.8896 16.4382 12.0805 16.4382C12.2749 16.4382 12.4392 16.5053 12.5735 16.6396C12.7078 16.7739 12.775 16.9365 12.775 17.1274C12.775 17.3182 12.7078 17.4808 12.5735 17.6151C12.4392 17.7529 12.2749 17.8218 12.0805 17.8218ZM10.5113 17.5727C10.3205 17.5727 10.1561 17.5038 10.0183 17.3659C9.88398 17.2316 9.81682 17.0691 9.81682 16.8782C9.81682 16.6874 9.88398 16.523 10.0183 16.3852C10.1561 16.2509 10.3205 16.1837 10.5113 16.1837C10.7021 16.1837 10.8647 16.2509 10.999 16.3852C11.1369 16.523 11.2058 16.6874 11.2058 16.8782C11.2058 17.0691 11.1369 17.2316 10.999 17.3659C10.8647 17.5038 10.7021 17.5727 10.5113 17.5727ZM9.09054 16.8517C8.89969 16.8517 8.73712 16.7828 8.60282 16.6449C8.46852 16.5106 8.40137 16.3481 8.40137 16.1572C8.40137 15.9664 8.46852 15.8038 8.60282 15.6695C8.73712 15.5317 8.89969 15.4628 9.09054 15.4628C9.28139 15.4628 9.44396 15.5317 9.57826 15.6695C9.7161 15.8038 9.78502 15.9664 9.78502 16.1572C9.78502 16.3481 9.7161 16.5106 9.57826 16.6449C9.44396 16.7828 9.28139 16.8517 9.09054 16.8517ZM7.96666 15.7225C7.77581 15.7225 7.61147 15.6554 7.47363 15.5211C7.33933 15.3868 7.27218 15.2224 7.27218 15.028C7.27218 14.8372 7.33933 14.6746 7.47363 14.5403C7.61147 14.406 7.77581 14.3389 7.96666 14.3389C8.15751 14.3389 8.32008 14.406 8.45438 14.5403C8.59222 14.6746 8.66113 14.8372 8.66113 15.028C8.66113 15.2224 8.59222 15.3868 8.45438 15.5211C8.32008 15.6554 8.15751 15.7225 7.96666 15.7225ZM7.25098 14.3177C7.06013 14.3177 6.89579 14.2505 6.75795 14.1162C6.62365 13.9819 6.5565 13.8193 6.5565 13.6285C6.5565 13.4341 6.62365 13.2698 6.75795 13.1355C6.89579 13.0012 7.06013 12.934 7.25098 12.934C7.44182 12.934 7.6044 13.0012 7.7387 13.1355C7.87653 13.2698 7.94545 13.4341 7.94545 13.6285C7.94545 13.8193 7.87653 13.9819 7.7387 14.1162C7.6044 14.2505 7.44182 14.3177 7.25098 14.3177ZM6.98061 12.7485C6.78976 12.7485 6.62542 12.6813 6.48758 12.547C6.35328 12.4092 6.28613 12.2448 6.28613 12.054C6.28613 11.8631 6.35328 11.7006 6.48758 11.5663C6.62542 11.4284 6.78976 11.3595 6.98061 11.3595C7.17146 11.3595 7.33403 11.4284 7.46833 11.5663C7.60617 11.7006 7.67508 11.8631 7.67508 12.054C7.67508 12.2448 7.60617 12.4092 7.46833 12.547C7.33403 12.6813 7.17146 12.7485 6.98061 12.7485ZM7.25098 11.174C7.06013 11.174 6.89579 11.1068 6.75795 10.9725C6.62365 10.8347 6.5565 10.6703 6.5565 10.4795C6.5565 10.2886 6.62365 10.1261 6.75795 9.99177C6.89579 9.85393 7.06013 9.78502 7.25098 9.78502C7.44182 9.78502 7.6044 9.85393 7.7387 9.99177C7.87653 10.1261 7.94545 10.2886 7.94545 10.4795C7.94545 10.6703 7.87653 10.8347 7.7387 10.9725C7.6044 11.1068 7.44182 11.174 7.25098 11.174ZM7.96666 9.76911C7.77581 9.76911 7.61147 9.70196 7.47363 9.56766C7.33933 9.43336 7.27218 9.26902 7.27218 9.07464C7.27218 8.88379 7.33933 8.72121 7.47363 8.58691C7.61147 8.45261 7.77581 8.38546 7.96666 8.38546C8.15751 8.38546 8.32008 8.45261 8.45438 8.58691C8.59222 8.72121 8.66113 8.88379 8.66113 9.07464C8.66113 9.26902 8.59222 9.43336 8.45438 9.56766C8.32008 9.70196 8.15751 9.76911 7.96666 9.76911ZM9.09054 8.64523C8.89969 8.64523 8.73712 8.57808 8.60282 8.44378C8.46852 8.30594 8.40137 8.1416 8.40137 7.95075C8.40137 7.75991 8.46852 7.59733 8.60282 7.46303C8.73712 7.3252 8.89969 7.25628 9.09054 7.25628C9.28139 7.25628 9.44396 7.3252 9.57826 7.46303C9.7161 7.59733 9.78502 7.75991 9.78502 7.95075C9.78502 8.1416 9.7161 8.30594 9.57826 8.44378C9.44396 8.57808 9.28139 8.64523 9.09054 8.64523ZM10.5113 7.91895C10.3205 7.91895 10.1561 7.85179 10.0183 7.71749C9.88398 7.58319 9.81682 7.42062 9.81682 7.22977C9.81682 7.03539 9.88398 6.87105 10.0183 6.73675C10.1561 6.60245 10.3205 6.5353 10.5113 6.5353C10.7021 6.5353 10.8647 6.60245 10.999 6.73675C11.1369 6.87105 11.2058 7.03539 11.2058 7.22977C11.2058 7.42062 11.1369 7.58319 10.999 7.71749C10.8647 7.85179 10.7021 7.91895 10.5113 7.91895Z" fill="currentColor"/>
</svg>
