<svg width="23" height="22" viewBox="0 0 23 22" fill="none" xmlns="http://www.w3.org/2000/svg">
<path d="M20.6804 11.2005H8.80035M20.6804 5.26051H8.80035M20.6804 17.1405H8.80035M4.84035 11.2005C4.84035 11.7473 4.39711 12.1905 3.85035 12.1905C3.30359 12.1905 2.86035 11.7473 2.86035 11.2005C2.86035 10.6537 3.30359 10.2105 3.85035 10.2105C4.39711 10.2105 4.84035 10.6537 4.84035 11.2005ZM4.84035 5.26051C4.84035 5.80726 4.39711 6.25051 3.85035 6.25051C3.30359 6.25051 2.86035 5.80726 2.86035 5.26051C2.86035 4.71375 3.30359 4.27051 3.85035 4.27051C4.39711 4.27051 4.84035 4.71375 4.84035 5.26051ZM4.84035 17.1405C4.84035 17.6873 4.39711 18.1305 3.85035 18.1305C3.30359 18.1305 2.86035 17.6873 2.86035 17.1405C2.86035 16.5937 3.30359 16.1505 3.85035 16.1505C4.39711 16.1505 4.84035 16.5937 4.84035 17.1405Z" stroke="black" stroke-width="2" stroke-linecap="round" stroke-linejoin="round"/>
</svg>
